 <svg  version="1.0" xmlns="http://www.w3.org/2000/svg"  width="200.000000pt" height="200.000000pt" viewBox="0 0 200.000000 200.000000"  preserveAspectRatio="xMidYMid meet">  <g transform="translate(0.000000,200.000000) scale(0.100000,-0.100000)" fill="#ffffff" stroke="none"> <path d="M745 1411 c-48 -22 -69 -44 -90 -94 -32 -77 -5 -167 63 -212 73 -49 150 -43 218 17 37 32 42 49 20 67 -10 9 -17 6 -29 -12 -9 -14 -34 -33 -57 -45 -54 -27 -103 -16 -147 32 -27 29 -33 44 -33 81 0 25 7 60 16 76 19 38 92 73 133 64 44 -9 96 -62 141 -142 l40 -72 0 -116 c0 -103 2 -115 18 -115 15 0 17 10 14 102 l-3 103 28 -27 c126 -121 330 8 284 180 -15 53 -46 91 -95 113 -53 24 -97 24 -145 -1 -49 -24 -78 -60 -92 -114 l-11 -40 -13 31 c-19 44 -84 114 -122 130 -44 18 -90 16 -138 -6z m518 -48 c35 -18 68 -88 61 -128 -15 -84 -88 -135 -163 -115 -106 28 -132 176 -42 239 46 33 85 34 144 4z m-227 -142 c0 -16 -4 -27 -9 -24 -4 2 -5 9 -2 14 4 5 1 9 -6 9 -8 0 -8 4 1 15 17 20 18 19 16 -14z"/> <path d="M770 1290 c-24 -24 -25 -48 -4 -78 31 -45 104 -19 104 37 0 55 -61 80 -100 41z m69 -36 c-6 -8 -8 -14 -4 -14 4 0 2 -7 -5 -15 -16 -19 -45 -4 -47 25 -2 25 35 43 55 28 9 -8 9 -14 1 -24z"/> <path d="M816 1272 c-3 -5 1 -9 9 -9 8 0 12 4 9 9 -3 4 -7 8 -9 8 -2 0 -6 -4 -9 -8z"/> <path d="M805 1241 c-3 -5 -2 -12 3 -15 5 -3 9 1 9 9 0 17 -3 19 -12 6z"/> <path d="M409 783 c0 -5 -1 -55 -1 -112 -1 -71 3 -106 10 -109 8 -2 12 15 12 57 0 51 3 62 21 71 34 19 49 -4 49 -71 0 -46 3 -59 15 -59 25 0 21 114 -5 140 -23 23 -50 26 -68 8 -9 -9 -12 -2 -12 35 0 26 -4 47 -10 47 -5 0 -10 -3 -11 -7z"/> <path d="M1027 783 c-2 -5 -3 -55 -3 -112 1 -74 5 -106 14 -108 9 -4 12 12 12 56 0 51 3 62 21 71 34 19 49 -4 49 -71 0 -46 3 -59 15 -59 25 0 21 114 -5 140 -23 23 -50 26 -68 8 -9 -9 -12 -2 -12 35 0 41 -11 61 -23 40z"/> <path d="M1186 783 c-3 -3 -6 -55 -6 -115 0 -89 3 -108 15 -108 12 0 15 19 15 109 0 100 -6 131 -24 114z"/> <path d="M226 739 c-40 -47 -34 -130 13 -166 45 -35 125 2 137 62 20 108 -85 181 -150 104z m104 -9 c14 -14 20 -33 20 -65 0 -51 -25 -85 -63 -85 -60 0 -88 111 -38 151 30 24 56 24 81 -1z"/> <path d="M579 766 c-8 -8 3 -146 12 -146 5 0 9 34 9 75 0 66 -6 86 -21 71z"/> <path d="M717 763 c-3 -5 -5 -52 -6 -105 -2 -83 0 -98 14 -98 11 0 15 11 15 40 0 39 1 40 33 40 65 0 95 55 57 103 -17 22 -30 27 -65 27 -24 0 -46 -3 -48 -7z m84 -23 c21 -12 25 -50 7 -68 -7 -7 -25 -12 -40 -12 -27 0 -28 2 -28 45 0 39 3 45 21 45 11 0 29 -5 40 -10z"/> <path d="M870 656 c0 -73 14 -96 59 -96 44 0 61 27 61 99 0 45 -3 62 -12 59 -8 -3 -11 -21 -9 -51 3 -52 -12 -87 -37 -87 -31 0 -42 22 -42 82 0 32 -4 58 -10 58 -6 0 -10 -28 -10 -64z"/> <path d="M1261 703 c-55 -45 -25 -143 43 -143 35 0 76 23 63 36 -4 5 -17 3 -27 -4 -36 -22 -80 -9 -80 25 0 9 17 13 55 13 49 0 55 2 55 20 0 26 -43 70 -68 70 -11 0 -29 -8 -41 -17z m60 -13 c34 -19 23 -40 -21 -40 -43 0 -55 20 -22 39 21 13 20 13 43 1z"/> <path d="M1410 700 c-30 -30 -31 -91 -3 -122 19 -22 71 -24 99 -4 24 18 13 31 -14 17 -28 -15 -48 -14 -66 5 -27 26 -18 34 39 34 51 0 55 2 55 23 0 29 -39 67 -68 67 -12 0 -31 -9 -42 -20z m59 -10 c10 -5 21 -16 25 -25 4 -12 -3 -15 -39 -15 -48 0 -55 9 -29 34 18 19 20 19 43 6z"/> <path d="M1562 697 c-29 -30 -30 -89 -2 -117 23 -23 68 -26 96 -6 24 18 13 31 -14 17 -28 -15 -48 -14 -66 5 -27 27 -18 34 45 34 52 0 60 2 55 16 -3 9 -6 20 -6 25 0 18 -40 49 -63 49 -13 0 -33 -10 -45 -23z m72 -13 c26 -25 19 -34 -29 -34 -42 0 -45 2 -35 19 9 18 24 28 42 30 4 1 14 -6 22 -15z"/> <path d="M1693 708 c2 -8 19 -13 41 -12 l37 1 -17 -26 c-10 -14 -28 -42 -41 -61 -12 -19 -23 -38 -23 -42 0 -5 27 -8 60 -8 33 0 60 4 60 10 0 6 -20 10 -45 10 l-44 0 44 64 c25 35 42 66 38 70 -3 3 -31 6 -60 6 -39 0 -53 -4 -50 -12z"/> <path d="M575 581 c-7 -12 12 -24 25 -16 11 7 4 25 -10 25 -5 0 -11 -4 -15 -9z"/> </g> </svg> 